# File created by Blade
# Date/Time:  Wed Apr 08 14:10:35 2015
# Frame Rate: 120.000 fps
#------------------------------------------------------
:FULLY-SPECIFIED
:DEGREES
574
root 1.028729 32.587040 19.385565 25.333464 2.173423 -5.879735
Spine -2.660865 -8.767028 -1.090991
Head -3.644704 -2.344402 8.068274
LeftShoulder -16.829803 41.562650 16.673007
LeftArm 65.833513 -34.101638 -75.719382
LeftForeArm -5.000230 -0.000000 5.554628
LeftHand 17.383729 -0.000000 22.018824
LeftHandThumb1 -26.253704 0.000000 33.147579
RightShoulder -5.071433 0.016956 -22.731261
RightArm 13.142833 14.362146 58.367787
RightForeArm -5.302645 -0.000000 24.013015
RightHand 13.219199 0.000000 -15.722139
RightHandThumb1 -24.326973 -0.000000 -32.862282
LeftUpLeg -42.708264 -3.837758 5.857081
LeftLeg 31.964843 -0.000000 -0.000000
LeftFoot -3.526961 2.835503 -13.750598
LeftToeBase -26.416257 -0.000000 0.000000
RightUpLeg -34.527630 8.352862 4.392535
RightLeg 40.682604 -0.000000 -0.000000
RightFoot -18.576345 -12.844214 13.906435
RightToeBase -7.779531 -0.000000 0.000000
575
root 1.011993 32.589554 19.413252 25.259184 2.016634 -5.960101
Spine -2.847795 -8.789178 -1.180771
Head -3.551611 -2.276934 8.128217
LeftShoulder -16.860687 41.566548 16.618140
LeftArm 65.870658 -33.874249 -75.549512
LeftForeArm -4.831770 -0.000000 5.485675
LeftHand 17.329355 -0.000000 21.808114
LeftHandThumb1 -26.253704 0.000000 33.147579
RightShoulder -5.095649 0.085634 -22.797659
RightArm 12.961027 14.577979 58.026137
RightForeArm -5.568788 0.000000 24.224146
RightHand 13.247537 -0.000000 -15.769025
RightHandThumb1 -24.326973 -0.000000 -32.862282
LeftUpLeg -42.571926 -3.840347 5.996322
LeftLeg 32.005148 -0.000000 -0.000000
LeftFoot -3.579753 2.856328 -13.827271
LeftToeBase -26.553330 -0.000000 0.000000
RightUpLeg -34.233722 8.409140 4.513388
RightLeg 40.534467 -0.000000 -0.000000
RightFoot -18.564949 -12.625981 14.017039
RightToeBase -7.965328 -0.000000 0.000000
576
root 0.994300 32.593004 19.439386 25.175739 1.862170 -6.013846
Spine -3.027794 -8.815485 -1.296761
Head -3.454401 -2.224730 8.185336
LeftShoulder -16.901429 41.545602 16.558297
LeftArm 65.927889 -33.686996 -75.421552
LeftForeArm -4.551331 -0.000000 5.463347
LeftHand 17.070796 0.000000 21.423375
LeftHandThumb1 -26.253704 0.000000 33.147579
RightShoulder -5.126762 -0.056228 -22.821730
RightArm 13.011400 14.854989 57.752429
RightForeArm -5.866329 -0.000000 24.356422
RightHand 13.178102 0.000000 -15.816700
RightHandThumb1 -24.326973 -0.000000 -32.862282
LeftUpLeg -42.437225 -3.906252 6.134544
LeftLeg 32.048930 -0.000000 -0.000000
LeftFoot -3.598764 2.946296 -13.837076
LeftToeBase -26.844860 -0.000000 0.000000
RightUpLeg -33.958239 8.490963 4.604824
RightLeg 40.453267 -0.000000 -0.000000
RightFoot -18.604977 -12.308592 14.253230
RightToeBase -8.002354 -0.000000 0.000000
577
root 0.978103 32.596838 19.462651 25.100986 1.741427 -6.059835
Spine -3.225991 -8.876014 -1.393940
Head -3.351474 -2.139668 8.268690
LeftShoulder -16.947575 41.562968 16.527684
LeftArm 65.966980 -33.464746 -75.297984
LeftForeArm -4.261954 -0.000000 5.443686
LeftHand 17.026458 0.000000 21.068601
LeftHandThumb1 -26.253704 0.000000 33.147579
RightShoulder -5.101670 -0.130778 -22.831116
RightArm 12.989952 15.032918 57.431588
RightForeArm -6.108910 -0.000000 24.460579
RightHand 13.253287 -0.000000 -15.850038
RightHandThumb1 -24.326973 -0.000000 -32.862282
LeftUpLeg -42.335329 -3.978279 6.262858
LeftLeg 32.116408 -0.000000 -0.000000
LeftFoot -3.591759 3.030186 -13.806403
LeftToeBase -27.037725 -0.000000 0.000000
RightUpLeg -33.708335 8.535828 4.705970
RightLeg 40.368236 -0.000000 -0.000000
RightFoot -18.683730 -12.099643 14.441109
RightToeBase -8.168319 -0.000000 0.000000
578
root 0.959936 32.600171 19.483930 25.070195 1.626753 -6.123362
Spine -3.485432 -8.896243 -1.466754
Head -3.237607 -2.092394 8.340064
LeftShoulder -16.928527 41.590734 16.558920
LeftArm 65.947538 -33.256492 -75.179751
LeftForeArm -3.913819 -0.000000 5.528819
LeftHand 16.886359 -0.000000 20.650149
LeftHandThumb1 -26.253704 0.000000 33.147579
RightShoulder -5.115561 -0.178561 -22.865310
RightArm 13.001724 15.040715 57.142529
RightForeArm -6.267865 -0.000000 24.414824
RightHand 13.251210 -0.000000 -15.938437
RightHandThumb1 -24.326973 -0.000000 -32.862282
LeftUpLeg -42.280814 -4.048783 6.410064
LeftLeg 32.182979 -0.000000 -0.000000
LeftFoot -3.600811 3.115291 -13.736749
LeftToeBase -27.245391 -0.000000 0.000000
RightUpLeg -33.502459 8.635201 4.825193
RightLeg 40.260904 -0.000000 -0.000000
RightFoot -18.725866 -11.993821 14.634554
RightToeBase -7.934160 -0.000000 0.000000
